# Blender v2.92.0 OBJ File: ''
# www.blender.org
mtllib truck.mtl
o truck_grey
v 0.415000 -0.000000 0.614200
v -0.415000 0.081417 0.614200
v -0.415000 -0.000000 0.614200
v 0.415000 0.081417 0.614200
v -0.415000 0.000000 -0.630800
v 0.415000 0.000000 -0.630800
v -0.415000 0.081417 -0.630800
v -0.415000 1.005960 -0.569496
v -0.415000 1.005960 -0.346510
v -0.415000 1.005960 0.821700
v -0.415000 0.081417 0.821700
v -0.415000 0.827190 -0.656389
v -0.415000 0.827190 -0.692909
v -0.415000 0.779719 -0.748420
v -0.415000 0.081417 -0.821700
v -0.415000 0.534807 -0.821700
v 0.415000 0.081417 -0.630800
v 0.415000 0.827190 -0.656389
v 0.415000 0.827190 -0.692909
v 0.415000 0.534807 -0.821700
v 0.415000 0.779719 -0.748420
v 0.415000 0.081417 -0.821700
v 0.415000 1.005960 0.821700
v 0.415000 1.005960 -0.346510
v 0.415000 0.081417 0.821700
v 0.415000 1.005960 -0.569496
vt 0.656030 0.030456
vt 0.335443 0.061903
vt 0.335443 0.030456
vt 0.656030 0.061903
vt -0.283681 0.064085
vt -0.106545 0.329789
vt -0.283681 0.329789
vt -0.106545 0.064085
vt -2.126264 1.387880
vt -2.883840 1.437421
vt -2.883840 1.387879
vt -2.846536 2.000001
vt -2.710851 2.000001
vt -2.126264 1.437421
vt -2.000001 2.000001
vt -2.000001 1.437421
vt -2.899411 1.891220
vt -2.921633 1.891220
vt -2.955411 1.862335
vt -3.000001 1.437421
vt -3.000001 1.713307
vt -0.596161 0.061890
vt -0.932092 0.028938
vt -0.596161 0.028938
vt -0.932092 0.061890
vt -0.663066 0.328580
vt -0.998996 0.343361
vt -0.998996 0.328580
vt -0.663066 0.343361
vt -0.663066 0.299018
vt -0.998996 0.195551
vt -0.663066 0.195551
vt -0.998996 0.299018
vt -0.998997 0.012048
vt -0.663066 0.012048
vt -2.000001 2.000001
vt -2.126264 1.437421
vt -2.710851 2.000001
vt -2.000001 1.437421
vt -2.126264 1.387880
vt -2.846536 2.000001
vt -2.883840 1.387879
vt -2.883840 1.437421
vt -2.899411 1.891220
vt -2.921633 1.891220
vt -2.955411 1.862335
vt -3.000001 1.437421
vt -3.000001 1.713307
vt -0.759491 0.366406
vt -0.956689 0.319182
vt -0.759490 0.319181
vt -0.956689 0.366407
vt -0.593758 0.009172
vt -0.929688 0.086436
vt -0.929688 0.009172
vt -0.593758 0.086436
vt 0.660445 0.379064
vt 0.339857 0.021960
vt 0.660444 0.021960
vt 0.339858 0.379064
vt 0.322442 0.084078
vt 0.643029 0.003931
vt 0.643029 0.084078
vt 0.322442 0.003931
vt -0.770520 0.322972
vt -0.962666 0.374594
vt -0.962666 0.322972
vt -0.770520 0.374594
vt -2.711964 2.566896
vt -2.119577 2.987780
vt -2.711964 2.987780
vt -2.119577 2.566896
vn 0.0000 0.0000 1.0000
vn 0.0000 -1.0000 -0.0000
vn -1.0000 0.0000 0.0000
vn 0.0000 0.0000 -1.0000
vn 0.0000 1.0000 0.0000
vn 0.0000 0.5455 -0.8381
vn 0.0000 0.1449 -0.9895
vn 0.0000 0.7600 -0.6499
vn 1.0000 0.0000 0.0000
vn 0.0000 0.8477 -0.5305
vn 0.0000 0.4372 -0.8994
usemtl truck
s 1
f 1/1/1 2/2/1 3/3/1
f 2/2/1 1/1/1 4/4/1
f 1/5/2 5/6/2 6/7/2
f 5/6/2 1/5/2 3/8/2
f 3/9/3 7/10/3 5/11/3
f 7/10/3 3/9/3 8/12/3
f 8/12/3 3/9/3 9/13/3
f 9/13/3 3/9/3 2/14/3
f 9/13/3 2/14/3 10/15/3
f 10/15/3 2/14/3 11/16/3
f 12/17/3 7/10/3 8/12/3
f 13/18/3 7/10/3 12/17/3
f 14/19/3 7/10/3 13/18/3
f 14/19/3 15/20/3 7/10/3
f 15/20/3 14/19/3 16/21/3
f 7/22/4 6/23/4 5/24/4
f 6/23/4 7/22/4 17/25/4
f 13/26/5 18/27/5 19/28/5
f 18/27/5 13/26/5 12/29/5
f 14/30/6 20/31/7 16/32/7
f 20/31/7 14/30/6 21/33/6
f 22/34/4 16/32/7 20/31/7
f 16/32/7 22/34/4 15/35/4
f 14/30/6 19/28/8 21/33/6
f 19/28/8 14/30/6 13/26/8
f 23/36/9 4/37/9 24/38/9
f 4/37/9 23/36/9 25/39/9
f 1/40/9 24/38/9 4/37/9
f 1/40/9 26/41/9 24/38/9
f 6/42/9 26/41/9 1/40/9
f 17/43/9 26/41/9 6/42/9
f 17/43/9 18/44/9 26/41/9
f 17/43/9 19/45/9 18/44/9
f 17/43/9 21/46/9 19/45/9
f 22/47/9 21/46/9 17/43/9
f 21/46/9 22/47/9 20/48/9
f 8/49/10 18/50/11 12/51/11
f 18/50/11 8/49/10 26/52/10
f 7/53/2 22/54/2 17/55/2
f 22/54/2 7/53/2 15/56/2
f 23/57/1 11/58/1 25/59/1
f 11/58/1 23/57/1 10/60/1
f 11/61/2 4/62/2 25/63/2
f 4/62/2 11/61/2 2/64/2
f 8/65/10 24/66/5 26/67/10
f 24/66/5 8/65/10 9/68/5
f 9/69/5 23/70/5 24/71/5
f 23/70/5 9/69/5 10/72/5
