# Blender v2.92.0 OBJ File: ''
# www.blender.org
mtllib wallB_door.mtl
o wallB_door
v 0.500000 1.000000 0.500000
v 0.500000 0.000000 -0.500000
v 0.500000 1.000000 -0.500000
v 0.500000 -0.000000 0.500000
v -0.500000 -0.000000 0.500000
v -0.500000 1.000000 0.500000
v -0.500000 1.000000 -0.500000
v -0.500000 0.000000 -0.500000
v -0.498897 0.000000 -0.500000
v -0.198897 0.000000 -0.500000
v -0.198897 0.627794 -0.500000
v 0.198897 0.627794 -0.500000
v 0.198897 0.000000 -0.500000
v 0.146573 0.000000 -0.475000
v -0.146573 0.000000 -0.475000
v -0.146573 0.000000 -0.500000
v 0.146573 0.000000 -0.500000
v -0.146573 0.575469 -0.475000
v 0.146573 0.575469 -0.500000
v 0.146573 0.575469 -0.475000
v -0.146573 0.575469 -0.500000
vt 12.000000 1.000000
vt 13.000000 0.000000
vt 13.000000 1.000000
vt 12.000000 0.000000
vt 11.000000 0.000000
vt 11.000000 1.000000
vt 15.000000 0.000000
vt 14.000000 1.000000
vt 14.000000 0.000000
vt 15.000000 1.000000
vt 13.998900 0.000000
vt 13.698900 0.000000
vt 13.698900 0.627794
vt 13.301100 0.627794
vt 13.301100 0.000000
vt 5.000000 -11.000000
vt 4.000000 -10.000000
vt 4.000000 -11.000000
vt 5.000000 -10.000000
vt -19.000000 -6.000000
vt -18.000000 -7.000000
vt -18.000000 -6.000000
vt -18.301100 -7.000000
vt -18.353430 -6.975000
vt -18.646570 -6.975000
vt -18.646570 -7.000000
vt -18.698900 -7.000000
vt -18.998899 -7.000000
vt -19.000000 -7.000000
vt -18.353430 -7.000000
vt -3.287849 -0.727667
vt -2.994704 -0.777667
vt -2.994704 -0.727667
vt -3.287849 -0.777667
vt 2.200591 2.201103
vt 2.150591 2.776572
vt 2.150591 2.201103
vt 2.200591 2.776572
vt 13.598900 2.828897
vt 13.546570 2.201103
vt 13.598900 2.201103
vt 13.546570 2.776572
vt 13.253430 2.776572
vt 13.201100 2.828897
vt 13.201100 2.201103
vt 13.253430 2.201103
vt 8.058132 2.776572
vt 8.108132 2.201103
vt 8.108132 2.776572
vt 8.058132 2.201103
vt 0.506524 0.994350
vt 0.000000 0.000000
vt 0.506523 0.000000
vt 0.000000 0.994350
vn 1.0000 0.0000 0.0000
vn 0.0000 -0.0000 1.0000
vn -1.0000 0.0000 0.0000
vn -0.0000 0.0000 -1.0000
vn 0.0000 1.0000 0.0000
vn 0.0000 -1.0000 -0.0000
usemtl wall_metal.002
s 1
f 1/1/1 2/2/1 3/3/1
f 2/2/1 1/1/1 4/4/1
f 1/1/2 5/5/2 4/4/2
f 5/5/2 1/1/2 6/6/2
f 5/7/3 7/8/3 8/9/3
f 7/8/3 5/7/3 6/10/3
f 7/8/4 9/11/4 8/9/4
f 9/11/4 7/8/4 10/12/4
f 10/12/4 7/8/4 11/13/4
f 11/13/4 7/8/4 12/14/4
f 3/3/4 12/14/4 7/8/4
f 2/2/4 12/14/4 3/3/4
f 12/14/4 2/2/4 13/15/4
f 7/16/5 1/17/5 3/18/5
f 1/17/5 7/16/5 6/19/5
f 5/20/6 2/21/6 4/22/6
f 2/21/6 5/20/6 13/23/6
f 13/23/6 5/20/6 14/24/6
f 14/24/6 5/20/6 15/25/6
f 15/25/6 5/20/6 16/26/6
f 16/26/6 5/20/6 10/27/6
f 10/27/6 5/20/6 9/28/6
f 9/28/6 5/20/6 8/29/6
f 17/30/6 13/23/6 14/24/6
f 18/31/6 19/32/6 20/33/6
f 19/32/6 18/31/6 21/34/6
f 14/35/3 19/36/3 17/37/3
f 19/36/3 14/35/3 20/38/3
f 11/39/4 16/40/4 10/41/4
f 16/40/4 11/39/4 21/42/4
f 21/42/4 11/39/4 19/43/4
f 12/44/4 19/43/4 11/39/4
f 13/45/4 19/43/4 12/44/4
f 19/43/4 13/45/4 17/46/4
f 18/47/1 16/48/1 21/49/1
f 16/48/1 18/47/1 15/50/1
f 18/51/4 14/52/4 15/53/4
f 14/52/4 18/51/4 20/54/4
