# Blender v2.92.0 OBJ File: ''
# www.blender.org
mtllib wallB.mtl
o wallB
v -0.500000 1.000000 -0.500000
v 0.500000 0.000000 -0.500000
v -0.500000 0.000000 -0.500000
v 0.500000 1.000000 -0.500000
v 0.500000 1.000000 0.500000
v -0.500000 -0.000000 0.500000
v 0.500000 -0.000000 0.500000
v -0.500000 1.000000 0.500000
vt 14.000000 1.000000
vt 13.000000 0.000000
vt 14.000000 0.000000
vt 13.000000 1.000000
vt 12.000000 1.000000
vt 11.000000 0.000000
vt 12.000000 0.000000
vt 11.000000 1.000000
vt 15.000000 0.000000
vt 15.000000 1.000000
vt 5.000000 -11.000000
vt 4.000000 -10.000000
vt 4.000000 -11.000000
vt 5.000000 -10.000000
vt -15.000000 -10.000000
vt -14.000000 -11.000000
vt -14.000000 -10.000000
vt -15.000000 -11.000000
vn 0.0000 0.0000 -1.0000
vn 0.0000 -0.0000 1.0000
vn -1.0000 0.0000 0.0000
vn 1.0000 0.0000 0.0000
vn 0.0000 1.0000 0.0000
vn 0.0000 -1.0000 -0.0000
usemtl wall_metal.003
s 1
f 1/1/1 2/2/1 3/3/1
f 2/2/1 1/1/1 4/4/1
f 5/5/2 6/6/2 7/7/2
f 6/6/2 5/5/2 8/8/2
f 6/9/3 1/1/3 3/3/3
f 1/1/3 6/9/3 8/10/3
f 5/5/4 2/2/4 4/4/4
f 2/2/4 5/5/4 7/7/4
f 1/11/5 5/12/5 4/13/5
f 5/12/5 1/11/5 8/14/5
f 6/15/6 2/16/6 7/17/6
f 2/16/6 6/15/6 3/18/6
