# Blender v2.92.0 OBJ File: ''
# www.blender.org
mtllib wallB_garage.mtl
o wallB_garage_Mesh_wallB_garage
v 0.500000 0.000000 0.500000
v 0.350000 0.000000 0.500000
v 0.500000 1.000000 0.500000
v 0.350000 0.670000 0.500000
v -0.350000 0.670000 0.500000
v -0.500000 1.000000 0.500000
v -0.500000 0.000000 0.500000
v -0.350000 0.000000 0.500000
v -0.500000 0.000000 -0.500000
v 0.500000 0.000000 -0.500000
v -0.500000 1.000000 -0.500000
v 0.500000 1.000000 -0.500000
v 0.500000 0.000000 0.500000
v 0.500000 1.000000 0.500000
v 0.500000 0.000000 -0.500000
v 0.500000 1.000000 -0.500000
v -0.500000 1.000000 0.500000
v -0.500000 0.000000 0.500000
v -0.500000 1.000000 -0.500000
v -0.500000 0.000000 -0.500000
v -0.350000 0.670000 0.400000
v -0.350000 0.670000 0.500000
v 0.350000 0.670000 0.400000
v 0.350000 0.670000 0.500000
v 0.350000 0.670000 0.500000
v 0.350000 0.000000 0.500000
v 0.350000 0.670000 0.400000
v 0.350000 0.000000 0.400000
v -0.350000 0.000000 0.500000
v -0.350000 0.670000 0.500000
v -0.350000 0.000000 0.400000
v -0.350000 0.670000 0.400000
v -0.500000 1.000000 0.500000
v -0.500000 1.000000 -0.500000
v 0.500000 1.000000 0.500000
v 0.500000 1.000000 -0.500000
v -0.500000 0.000000 -0.500000
v -0.500000 0.000000 0.500000
v 0.500000 0.000000 -0.500000
v -0.350000 0.000000 0.400000
v 0.350000 0.000000 0.400000
v 0.350000 0.000000 0.500000
v 0.500000 0.000000 0.500000
v -0.350000 0.000000 0.500000
v 0.350000 0.000000 0.400000
v -0.350000 0.000000 0.400000
v 0.350000 0.670000 0.400000
v -0.350000 0.670000 0.400000
vt 14.000000 1.000000
vt 13.850000 0.000000
vt 14.000000 0.000000
vt 13.850000 0.670000
vt 13.150000 0.670000
vt 13.000000 1.000000
vt 13.000000 0.000000
vt 13.150000 0.000000
vt 12.000000 1.000000
vt 11.000000 0.000000
vt 12.000000 0.000000
vt 11.000000 1.000000
vt 15.000000 0.000000
vt 14.000000 1.000000
vt 14.000000 0.000000
vt 15.000000 1.000000
vt 12.000000 1.000000
vt 13.000000 0.000000
vt 13.000000 1.000000
vt 12.000000 0.000000
vt 13.850000 0.570000
vt 13.150000 0.670000
vt 13.150000 0.570000
vt 13.850000 0.670000
vt 13.750000 0.670000
vt 13.850000 0.000000
vt 13.850000 0.670000
vt 13.750000 0.000000
vt 13.250000 0.000000
vt 13.150000 0.670000
vt 13.150000 0.000000
vt 13.250000 0.670000
vt 5.000000 -11.000000
vt 4.000000 -10.000000
vt 4.000000 -11.000000
vt 5.000000 -10.000000
vt -15.000000 -10.000000
vt -14.000000 -11.000000
vt -14.000000 -10.000000
vt -14.150000 -10.900000
vt -14.850000 -10.900000
vt -14.850000 -11.000000
vt -15.000000 -11.000000
vt -14.150000 -11.000000
vt 0.850000 0.670000
vt 0.150000 0.000000
vt 0.850000 0.000000
vt 0.150000 0.670000
vn 0.0000 0.0000 1.0000
vn 0.0000 0.0000 -1.0000
vn 1.0000 0.0000 0.0000
vn -1.0000 0.0000 0.0000
vn 0.0000 -1.0000 0.0000
vn 0.0000 1.0000 0.0000
usemtl wall_metal.001
s off
f 3/1/1 2/2/1 1/3/1
f 2/2/1 3/1/1 4/4/1
f 4/4/1 3/1/1 5/5/1
f 6/6/1 5/5/1 3/1/1
f 7/7/1 5/5/1 6/6/1
f 5/5/1 7/7/1 8/8/1
f 11/9/2 10/10/2 9/11/2
f 10/10/2 11/9/2 12/12/2
f 15/13/3 14/14/3 13/15/3
f 14/14/3 15/13/3 16/16/3
f 19/17/4 18/18/4 17/19/4
f 18/18/4 19/17/4 20/20/4
f 23/21/5 22/22/5 21/23/5
f 22/22/5 23/21/5 24/24/5
f 27/25/4 26/26/4 25/27/4
f 26/26/4 27/25/4 28/28/4
f 31/29/3 30/30/3 29/31/3
f 30/30/3 31/29/3 32/32/3
f 35/33/6 34/34/6 33/35/6
f 34/34/6 35/33/6 36/36/6
f 39/37/5 38/38/5 37/39/5
f 38/38/5 39/37/5 40/40/5
f 40/40/5 39/37/5 41/41/5
f 41/41/5 39/37/5 42/42/5
f 42/42/5 39/37/5 43/43/5
f 44/44/5 38/38/5 40/40/5
f 47/45/1 46/46/1 45/47/1
f 46/46/1 47/45/1 48/48/1
